HIERARCHY
ROOT hip
{
	OFFSET 0.000000 0.000000 0.000000 
	CHANNELS 6 Xposition Yposition Zposition Xrotation Zrotation Yrotation
	JOINT abdomen
	{
		OFFSET 0.000000 3.402643 0.000000 
		CHANNELS 3 Xrotation Zrotation Yrotation
		JOINT chest
		{
			OFFSET 0.000000 8.438565 -0.680529 
			CHANNELS 3 Xrotation Zrotation Yrotation
			JOINT neck
			{
				OFFSET 0.000000 10.207942 -0.272212 
				CHANNELS 3 Xrotation Zrotation Yrotation
				JOINT head
				{
					OFFSET 0.000000 3.130431 0.000000 
					CHANNELS 3 Xrotation Zrotation Yrotation
					End Site
					{
						OFFSET 0.000000 3.130435 0.000000 
					}
				}
			}
			JOINT lCollar
			{
				OFFSET 3.470700 6.669187 -0.816635 
				CHANNELS 3 Yrotation Zrotation Xrotation
				JOINT lShldr
				{
					OFFSET 3.198488 0.000000 0.000000 
					CHANNELS 3 Zrotation Yrotation Xrotation
					JOINT lForeArm
					{
						OFFSET 10.139888 0.000000 0.000000 
						CHANNELS 3 Yrotation Zrotation Xrotation
						JOINT lHand
						{
							OFFSET 8.370511 0.000000 0.000000 
							CHANNELS 3 Zrotation Yrotation Xrotation
							End Site
							{
								OFFSET 4.083176 0.000000 0.000000 
							}
						}
					}
				}
			}
			JOINT rCollar
			{
				OFFSET -3.470700 6.669187 -0.816635 
				CHANNELS 3 Yrotation Zrotation Xrotation
				JOINT rShldr
				{
					OFFSET -3.198488 0.000000 0.000000 
					CHANNELS 3 Zrotation Yrotation Xrotation
					JOINT rForeArm
					{
						OFFSET -10.139888 0.000000 0.000000 
						CHANNELS 3 Yrotation Zrotation Xrotation
						JOINT rHand
						{
							OFFSET -8.370511 0.000000 0.000000 
							CHANNELS 3 Zrotation Yrotation Xrotation
							End Site
							{
								OFFSET -4.083176 0.000000 0.000000 
							}
						}
					}
				}
			}
		}
	}
	JOINT lThigh
	{
		OFFSET 5.308129 -1.633274 1.361059 
		CHANNELS 3 Xrotation Zrotation Yrotation
		JOINT lShin
		{
			OFFSET -2.041588 -20.007561 0.000000 
			CHANNELS 3 Xrotation Zrotation Yrotation
			JOINT lFoot
			{
				OFFSET 0.000000 -19.190928 -1.224953 
				CHANNELS 3 Xrotation Yrotation Zrotation
				End Site
				{
					OFFSET 0.000000 -2.449906 4.627600 
				}
			}
		}
	}
	JOINT rThigh
	{
		OFFSET -5.308129 -1.633274 1.361059 
		CHANNELS 3 Xrotation Zrotation Yrotation
		JOINT rShin
		{
			OFFSET 2.041588 -20.007561 0.000000 
			CHANNELS 3 Xrotation Zrotation Yrotation
			JOINT rFoot
			{
				OFFSET 0.000000 -19.190928 -1.224953 
				CHANNELS 3 Xrotation Yrotation Zrotation
				End Site
				{
					OFFSET 0.000000 -2.449906 4.627600 
				}
			}
		}
	}
}
MOTION
Frames: 13
Frame Time: 0.016667
-2.166308 44.058514 -1.965808 6.972990 -0.562217 -2.549320 -18.108999 0.730797 1.393240 15.320600 1.429560 0.669830 -8.382830 -0.659751 -3.643640 2.828240 4.239700 -1.688350 2.000000 -2.000000 0.000000 101.487000 161.324997 5.483590 60.195801 -0.282803 0.118686 0.052020 -0.048117 -154.373001 -2.000000 2.000000 0.000000 23.687300 40.037498 164.145996 -134.404999 0.126016 0.080942 -0.117524 0.127553 170.421997 -16.322002 2.365130 -3.333270 25.578136 2.782995 1.970253 -18.248543 7.587512 3.599095 -9.754665 -1.117510 1.982391 11.636004 -2.753736 -0.977919 -15.024761 -8.585985 -3.527084 
-2.219870 44.064308 -1.904841 6.943710 -0.571946 -2.520920 -18.226299 0.771203 1.389790 15.320300 1.565710 0.667127 -8.744080 -0.661892 -3.652420 2.720530 4.249510 -1.696520 2.000000 -2.000000 0.000000 101.487000 161.257004 5.415070 60.156799 -0.282884 0.118640 0.051971 -0.047960 -154.313995 -2.000000 2.000000 0.000000 23.247601 40.175800 163.453003 -134.404999 0.126016 0.080942 -0.116765 0.126970 170.764008 -16.221487 2.436863 -3.315369 25.605955 2.799176 1.973291 -18.350889 7.518340 3.590742 -9.676417 -1.012469 2.102117 11.747397 -2.792172 -0.979421 -15.267001 -8.664059 -3.559290 
-2.235913 44.064175 -1.868096 6.924210 -0.601053 -2.524260 -18.343500 0.780322 1.386270 15.261700 1.575280 0.674391 -9.028000 -0.682156 -3.644390 2.642190 4.249540 -1.692540 2.000000 -2.000000 0.000000 101.458000 161.197998 5.336820 60.117699 -0.282965 0.118593 0.051995 -0.048038 -154.343994 -2.000000 2.000000 0.000000 22.944599 40.255001 162.985001 -134.423996 0.125985 0.080912 -0.116484 0.136518 170.891006 -16.176746 2.470035 -3.310565 25.564861 2.809306 1.956115 -18.328918 7.543438 3.602420 -9.537495 -0.992531 2.061827 11.584414 -2.756313 -0.959493 -15.224603 -8.673688 -3.570554 
-2.251943 44.064041 -1.831373 6.904720 -0.630162 -2.527580 -18.450800 0.783605 1.394980 15.212800 1.584880 0.672140 -9.302800 -0.701733 -3.625950 2.563850 4.239790 -1.688320 2.000000 -2.000000 0.000000 101.428001 161.139999 5.248790 60.078602 -0.283045 0.118547 0.052028 -0.048143 -154.382996 -2.000000 2.000000 0.000000 22.651400 40.324402 162.505997 -134.444000 0.125954 0.080882 -0.116203 0.126534 171.018005 -16.090691 2.510599 -3.298796 25.524445 2.812722 1.937997 -18.346218 7.560129 3.591589 -9.521951 -0.929946 2.042004 11.680275 -2.777142 -0.969720 -15.287719 -8.671024 -3.553840 
-2.258368 44.063400 -1.781393 6.836340 -0.620557 -2.476840 -18.587299 0.771764 1.418930 15.144500 1.545820 0.683697 -9.563440 -0.677635 -3.683000 2.495300 4.269090 -1.713680 2.000000 -2.000000 0.000000 101.349998 161.100998 5.111990 59.961498 -0.283288 0.118407 0.051962 -0.047934 -154.304993 -2.000000 2.000000 0.000000 22.172400 40.355099 161.901001 -134.462997 0.125923 0.080852 -0.115729 0.126164 171.233002 -15.898271 2.485179 -3.433476 25.426146 2.817524 1.950183 -18.400694 7.635684 3.618244 -9.293501 -0.959648 1.920555 11.472245 -2.762089 -0.951556 -15.174437 -8.626671 -3.540570 
-2.264794 44.062759 -1.731436 6.767960 -0.610947 -2.426120 -18.714100 0.756534 1.433870 15.086000 1.497060 0.696534 -9.824070 -0.653640 -3.740420 2.426750 4.288620 -1.738840 2.000000 -2.000000 0.000000 101.272003 161.061996 4.975180 59.834499 -0.283550 0.118255 0.051905 -0.047751 -154.235992 -2.000000 2.000000 0.000000 21.693300 40.385799 161.294998 -134.483002 0.125892 0.080821 -0.115257 0.125791 171.447006 -15.797618 2.425434 -3.541439 25.403730 2.832945 1.924586 -18.437986 7.721244 3.660112 -9.224621 -0.953240 1.788146 11.550218 -2.812361 -0.944877 -15.207534 -8.595377 -3.516591 
-2.248550 44.063152 -1.702285 6.767990 -0.630343 -2.399130 -18.870199 0.728631 1.442820 14.978800 1.380160 0.705111 -10.037700 -0.579287 -3.774780 2.348400 4.327660 -1.755580 2.000000 -2.000000 0.000000 101.251999 160.945007 4.935850 59.805199 -0.283610 0.118220 0.051881 -0.047673 -154.207001 -2.000000 2.000000 0.000000 21.311899 40.338001 160.845993 -134.501999 0.125861 0.080791 -0.115386 0.135659 171.389008 -15.700454 2.392570 -3.739011 25.296967 2.824471 1.934090 -18.479910 7.854185 3.695938 -9.179904 -0.969148 1.615599 11.524313 -2.833004 -0.927746 -15.120084 -8.542862 -3.457975 
-2.232306 44.063538 -1.673144 6.768020 -0.649738 -2.372130 -19.026300 0.704207 1.461060 14.881400 1.263310 0.714341 -10.261800 -0.514138 -3.798770 2.270050 4.366690 -1.762660 2.000000 -2.000000 0.000000 101.233002 160.828003 4.896530 59.775902 -0.283671 0.118185 0.051865 -0.047621 -154.186996 -2.000000 2.000000 0.000000 20.930500 40.290100 160.406998 -134.522003 0.125830 0.080761 -0.115493 0.125978 171.339996 -15.652180 2.355497 -3.923946 25.227547 2.827108 1.925942 -18.552366 7.981622 3.753481 -9.084939 -1.005316 1.456233 11.319494 -2.807109 -0.928403 -14.943547 -8.501610 -3.463492 
-2.281432 44.076263 -1.592721 6.768020 -0.649738 -2.206120 -19.192801 0.727248 1.411240 14.851800 1.409010 0.689377 -10.456700 -0.496852 -3.812820 2.221070 4.386190 -1.766990 2.000000 -2.000000 0.000000 101.203003 160.662003 4.847320 59.727100 -0.283771 0.118126 0.051840 -0.047542 -154.158005 -2.000000 2.000000 0.000000 20.480600 40.222801 159.947006 -134.570999 0.125753 0.080685 -0.115364 0.135642 171.399002 -15.536619 2.403467 -3.924034 25.157808 2.832758 1.918401 -18.564034 7.857230 3.704322 -8.927003 -0.927724 1.474851 11.279935 -2.843457 -0.922167 -15.178908 -8.678743 -3.504049 
-2.330557 44.089127 -1.512321 6.768020 -0.649738 -2.049870 -19.359301 0.750212 1.361210 14.822100 1.554680 0.664265 -10.652200 -0.488579 -3.815460 2.162290 4.405690 -1.772100 2.000000 -2.000000 0.000000 101.164001 160.505997 4.798140 59.668499 -0.283892 0.118056 0.051816 -0.047464 -154.128998 -2.000000 2.000000 0.000000 20.030701 40.145699 159.488007 -134.628998 0.125661 0.080593 -0.115257 0.125791 171.447006 -15.400425 2.444879 -3.905559 25.056370 2.851960 1.894220 -18.546078 7.749338 3.663479 -8.656533 -0.908336 1.511562 10.957506 -2.800679 -0.903648 -15.282025 -8.818727 -3.599962 
-2.343252 44.091179 -1.460398 6.719240 -0.688598 -2.014830 -19.486300 0.737412 1.354850 14.753800 1.525350 0.665370 -10.808200 -0.538147 -3.814780 2.103540 4.376390 -1.775630 2.000000 -2.000000 0.000000 101.164001 160.360001 4.739220 59.668499 -0.283892 0.118056 0.051808 -0.047438 -154.119003 -2.000000 2.000000 0.000000 19.834900 40.087700 159.223999 -134.658005 0.125615 0.080548 -0.115214 0.125757 171.466995 -15.322840 2.470927 -3.970109 25.036224 2.860320 1.906069 -18.581293 7.765594 3.675197 -8.565374 -0.827145 1.506661 11.014177 -2.853680 -0.896882 -15.382761 -8.898538 -3.588067 
-2.355946 44.093372 -1.408464 6.670460 -0.727464 -1.989490 -19.613199 0.728054 1.357680 14.685500 1.496020 0.666545 -10.974000 -0.597374 -3.812490 2.054580 4.356840 -1.788450 2.000000 -2.000000 0.000000 101.164001 160.203995 4.670510 59.658699 -0.283912 0.118044 0.051792 -0.047386 -154.098999 -2.000000 2.000000 0.000000 19.629400 40.029701 158.960999 -134.688004 0.125568 0.080502 -0.115171 0.125723 171.487000 -15.130502 2.523034 -4.013103 24.944134 2.879848 1.872521 -18.632425 7.824810 3.691532 -8.402337 -0.763132 1.487212 10.889807 -2.863326 -0.880108 -15.410963 -8.947884 -3.606841 
-2.364102 44.096325 -1.342960 6.621620 -0.717836 -1.919380 -19.710899 0.706122 1.354800 14.705100 1.466930 0.660275 -11.128700 -0.590677 -3.842000 2.015410 4.356820 -1.801190 2.000000 -2.000000 0.000000 101.134003 160.145004 4.562960 59.551300 -0.284133 0.117914 0.051727 -0.047177 -154.020996 -2.000000 2.000000 0.000000 19.238199 39.991699 158.485992 -134.697006 0.125553 0.080487 -0.115214 0.125757 171.466995 -15.047185 2.471067 -4.101397 24.922358 2.895871 1.866421 -18.669312 7.868515 3.698222 -8.223955 -0.766143 1.469760 10.810901 -2.889925 -0.853953 -15.464195 -9.011659 -3.635085 
